# xmcd CD database file
#
# Track frame offsets:
#	150
#	14875
#	30805
#	48131
#	64167
#	78490
#	95746
#	113804
#	127836
#	141376
#	153882
#	171528
#	186479
#	199755
#	212779
#	228921
#	249096
#
# Disc length: 3527 seconds
#
# Revision: 0
# Processed by: cddbd v1.5.2PL0 Copyright (c) Steve Scherf et al.
# Submitted via: CDex 2.10
#
DISCID=e80dc511
DTITLE=Various Artist - Hott Country 26
DYEAR=1999
DGENRE=Country
TTITLE0=Shania Twain - You`re Still The One 
TTITLE1=Tracy Byrd - I`m From The Country
TTITLE2=Melodie Crittenden - Broken Road
TTITLE3=The Lynns - Woman To Woman
TTITLE4=Rhett Akins - Better Than It Us To Be
TTITLE5=Mavericks - To Be With You
TTITLE6=Matt King - A Woman`s Tears
TTITLE7=Matraca Berg - Back In The Saddle
TTITLE8=Lee Ann Womack - Buckaroo
TTITLE9=Rick Tippe - Never Givin` Up
TTITLE10=Farmer`s Daughter - Inclemency
TTITLE11=Bruce Guthro - Walk This Road
TTITLE12=Jason McCoy - A Little Bit Of You (Goes A Long Way)
TTITLE13=Jim Lauderdale - Goodbye Song
TTITLE14=Little Texas - All In The Line Of Love
TTITLE15=Don Neilson - In My Day
TTITLE16=Thompson Brothers Band - Back On The Farm
EXTD=YEAR: 1999
EXTT0=
EXTT1=
EXTT2=
EXTT3=
EXTT4=
EXTT5=
EXTT6=
EXTT7=
EXTT8=
EXTT9=
EXTT10=
EXTT11=
EXTT12=
EXTT13=
EXTT14=
EXTT15=
EXTT16=
PLAYORDER=
